<svg width="25" height="30" viewBox="0 0 25 30" fill="none" xmlns="http://www.w3.org/2000/svg">
<path d="M17.7032 9.81067C17.0725 9.76133 16.3965 9.912 15.3592 10.308C15.4458 10.2747 14.3698 10.6947 14.0672 10.8013C13.3978 11.0347 12.8472 11.1627 12.2298 11.1627C11.6192 11.1627 11.0565 11.04 10.4098 10.8227C10.1834 10.7455 9.95889 10.6628 9.7365 10.5747L9.13784 10.3387C8.27384 10 7.7885 9.872 7.3845 9.88267C5.84717 9.90133 4.39384 10.7893 3.5485 12.2587C1.82584 15.2493 2.7805 20.6573 5.29917 24.3C6.63917 26.2253 7.37384 26.9133 7.6685 26.904C7.9645 26.8907 8.18317 26.828 8.71384 26.604L8.93517 26.5093C10.2765 25.9373 11.2152 25.6853 12.6298 25.6853C13.9912 25.6853 14.9005 25.9333 16.1885 26.488L16.4125 26.584C16.9418 26.8107 17.1325 26.8613 17.4685 26.8533C17.9445 26.8467 18.5325 26.2973 19.8378 24.3813C20.1952 23.86 20.5112 23.3107 20.7845 22.7547C20.605 22.607 20.4311 22.4527 20.2632 22.292C18.5432 20.6547 17.4805 18.4467 17.4512 15.7187C17.4234 13.7001 18.0873 11.7329 19.3325 10.144C18.81 9.95058 18.261 9.83817 17.7045 9.81067M17.9112 7.152C18.8552 7.216 21.5592 7.504 23.3192 10.08C23.1752 10.16 20.0872 11.952 20.1192 15.696C20.1672 20.176 24.0392 21.664 24.0872 21.68C24.0552 21.792 23.4632 23.808 22.0392 25.888C20.8072 27.696 19.5272 29.488 17.5112 29.52C15.5272 29.568 14.8872 28.352 12.6312 28.352C10.3592 28.352 9.65517 29.488 7.78317 29.568C5.83117 29.632 4.35917 27.616 3.11117 25.824C0.56717 22.144 -1.36883 15.456 1.23917 10.928C2.53517 8.672 4.83917 7.248 7.35117 7.216C9.25517 7.168 11.0632 8.496 12.2312 8.496C13.3832 8.496 15.4472 6.96 17.9112 7.152ZM16.3912 4.72C15.3512 5.968 13.6552 6.944 12.0072 6.816C11.7832 5.12 12.6152 3.344 13.5752 2.24C14.6472 0.992 16.4392 0.064 17.9272 0C18.1192 1.728 17.4312 3.472 16.3912 4.72Z" fill="#383737"/>
</svg>
