<svg width="12" height="12" viewBox="0 0 12 12" fill="none" xmlns="http://www.w3.org/2000/svg">
<g clip-path="url(#clip0_0_2602)">
<path d="M10.8959 4.99808C11.1242 6.11827 10.9615 7.28284 10.4351 8.29761C9.90859 9.31237 9.05015 10.116 8.0029 10.5744C6.95565 11.0329 5.78288 11.1184 4.68018 10.8168C3.57747 10.5153 2.61149 9.84476 1.94331 8.91716C1.27513 7.98956 0.945146 6.86093 1.00839 5.71948C1.07163 4.57803 1.52428 3.49276 2.29085 2.64465C3.05742 1.79654 4.09156 1.23687 5.22084 1.05895C6.35011 0.881037 7.50624 1.09564 8.49644 1.66697" stroke="#008236" stroke-width="0.999584" stroke-linecap="round" stroke-linejoin="round"/>
<path d="M4.49805 5.49757L5.99742 6.99694L10.9953 1.99902" stroke="#008236" stroke-width="0.999584" stroke-linecap="round" stroke-linejoin="round"/>
</g>
<defs>
<clipPath id="clip0_0_2602">
<rect width="11.995" height="11.995" fill="white"/>
</clipPath>
</defs>
</svg>
