<svg width="12" height="12" viewBox="0 0 12 12" fill="none" xmlns="http://www.w3.org/2000/svg">
<g clip-path="url(#clip0_711_471)">
<path d="M2.625 1.5C2.52554 1.5 2.43016 1.53951 2.35984 1.60984C2.28951 1.68016 2.25 1.77554 2.25 1.875V5.625C2.25 5.72446 2.28951 5.81984 2.35984 5.89016C2.43016 5.96049 2.52554 6 2.625 6H6.375C6.47446 6 6.56984 5.96049 6.64017 5.89016C6.71049 5.81984 6.75 5.72446 6.75 5.625V1.875C6.75 1.77554 6.71049 1.68016 6.64017 1.60984C6.56984 1.53951 6.47446 1.5 6.375 1.5H2.625ZM3 10.5V6.75H4.347C4.722 6.75 5.03125 6.82325 5.27475 6.96975C5.51825 7.11625 5.6995 7.32875 5.8185 7.60725C5.9395 7.88575 6 8.22175 6 8.61525C6 9.01125 5.9395 9.35 5.8185 9.6315C5.70957 9.90011 5.51708 10.1265 5.2695 10.2773C5.0265 10.4257 4.719 10.5 4.347 10.5H3ZM4.2495 7.3545H3.7305V9.89325H4.2495C4.421 9.89325 4.56975 9.8675 4.69575 9.816C4.81773 9.76579 4.92432 9.6843 5.00475 9.57975C5.08575 9.47325 5.146 9.34125 5.1855 9.18375C5.2275 9.02675 5.24825 8.84175 5.24775 8.62875C5.24775 8.34625 5.21175 8.11125 5.13975 7.92375C5.08146 7.74898 4.96634 7.59875 4.81275 7.497C4.66625 7.402 4.478 7.3545 4.2495 7.3545Z" fill="#3A3A3A"/>
<path d="M2.25 0C1.85218 0 1.47064 0.158035 1.18934 0.43934C0.908035 0.720644 0.75 1.10218 0.75 1.5V11.25H0.375C0.275544 11.25 0.180161 11.2895 0.109835 11.3598C0.0395088 11.4302 0 11.5255 0 11.625C0 11.7245 0.0395088 11.8198 0.109835 11.8902C0.180161 11.9605 0.275544 12 0.375 12H8.625C8.72446 12 8.81984 11.9605 8.89017 11.8902C8.96049 11.8198 9 11.7245 9 11.625C9 11.5255 8.96049 11.4302 8.89017 11.3598C8.81984 11.2895 8.72446 11.25 8.625 11.25H8.25V8.25C8.44891 8.25 8.63968 8.32902 8.78033 8.46967C8.92098 8.61032 9 8.80109 9 9V9.375C9 9.67337 9.11853 9.95952 9.3295 10.1705C9.54048 10.3815 9.82663 10.5 10.125 10.5C10.4234 10.5 10.7095 10.3815 10.9205 10.1705C11.1315 9.95952 11.25 9.67337 11.25 9.375V6H11.625C11.7245 6 11.8198 5.96049 11.8902 5.89016C11.9605 5.81984 12 5.72446 12 5.625V3.243C12 2.781 12 2.1735 11.7795 1.68225C11.657 1.39885 11.4487 1.16096 11.184 1.002C10.9005 0.8335 10.5475 0.7495 10.125 0.75C10.0255 0.75 9.93016 0.789509 9.85983 0.859835C9.78951 0.930161 9.75 1.02554 9.75 1.125C9.75 1.22446 9.78951 1.31984 9.85983 1.39017C9.93016 1.46049 10.0255 1.5 10.125 1.5C10.452 1.5 10.662 1.5645 10.8 1.64625C10.9326 1.72637 11.0361 1.84671 11.0955 1.98975C11.2057 2.23575 11.238 2.54925 11.2463 2.90625H10.125C10.0255 2.90625 9.93016 2.94576 9.85983 3.01609C9.78951 3.08641 9.75 3.18179 9.75 3.28125V5.625C9.75 5.72446 9.78951 5.81984 9.85983 5.89016C9.93016 5.96049 10.0255 6 10.125 6H10.5V9.375C10.5 9.47446 10.4605 9.56984 10.3902 9.64017C10.3198 9.71049 10.2245 9.75 10.125 9.75C10.0255 9.75 9.93016 9.71049 9.85983 9.64017C9.78951 9.56984 9.75 9.47446 9.75 9.375V9C9.75 8.60218 9.59196 8.22064 9.31066 7.93934C9.02936 7.65804 8.64782 7.5 8.25 7.5V1.5C8.25 1.10218 8.09196 0.720644 7.81066 0.43934C7.52936 0.158035 7.14782 0 6.75 0L2.25 0ZM7.5 1.5V11.25H1.5V1.5C1.5 1.30109 1.57902 1.11032 1.71967 0.96967C1.86032 0.829018 2.05109 0.75 2.25 0.75H6.75C6.94891 0.75 7.13968 0.829018 7.28033 0.96967C7.42098 1.11032 7.5 1.30109 7.5 1.5Z" fill="#3A3A3A"/>
</g>
<defs>
<clipPath id="clip0_711_471">
<rect width="12" height="12" fill="white"/>
</clipPath>
</defs>
</svg>
