<svg width="10" height="8" viewBox="0 0 10 8" fill="none" xmlns="http://www.w3.org/2000/svg">
<path d="M8.5 6C8.5 6.26522 8.39464 6.51957 8.20711 6.70711C8.01957 6.89464 7.76522 7 7.5 7C7.23478 7 6.98043 6.89464 6.79289 6.70711C6.60536 6.51957 6.5 6.26522 6.5 6C6.5 5.73478 6.60536 5.48043 6.79289 5.29289C6.98043 5.10536 7.23478 5 7.5 5C7.76522 5 8.01957 5.10536 8.20711 5.29289C8.39464 5.48043 8.5 5.73478 8.5 6ZM3.5 6C3.5 6.26522 3.39464 6.51957 3.20711 6.70711C3.01957 6.89464 2.76522 7 2.5 7C2.23478 7 1.98043 6.89464 1.79289 6.70711C1.60536 6.51957 1.5 6.26522 1.5 6C1.5 5.73478 1.60536 5.48043 1.79289 5.29289C1.98043 5.10536 2.23478 5 2.5 5C2.76522 5 3.01957 5.10536 3.20711 5.29289C3.39464 5.48043 3.5 5.73478 3.5 6Z" stroke="#3A3A3A" stroke-width="2" stroke-linecap="round" stroke-linejoin="round"/>
<path d="M8.5 6H9.5V3M9.5 3L8.5 0.5H4L2 3M9.5 3H2M2 3H1.5C1.23478 3 0.98043 3.10536 0.792893 3.29289C0.605357 3.48043 0.5 3.73478 0.5 4V6H1.5M3.5 6H6.5M5 3V0.5" stroke="#3A3A3A" stroke-linecap="round" stroke-linejoin="round"/>
</svg>
