<svg width="30" height="30" viewBox="0 0 30 30" fill="none" xmlns="http://www.w3.org/2000/svg">
<path d="M6.44716 17.5801L5.43455 21.3603L1.73347 21.4386C0.627387 19.3871 0 17.0398 0 14.5455C0 12.1335 0.586591 9.85898 1.62636 7.8562H1.62716L4.92216 8.46029L6.36557 11.7355C6.06347 12.6163 5.89881 13.5617 5.89881 14.5455C5.89892 15.6132 6.09233 16.6363 6.44716 17.5801Z" fill="#FBBB00"/>
<path d="M28.8368 11.8281C29.0038 12.708 29.0909 13.6167 29.0909 14.5454C29.0909 15.5868 28.9814 16.6026 28.7729 17.5824C28.0648 20.9166 26.2146 23.8281 23.6516 25.8885L23.6508 25.8877L19.5006 25.6759L18.9132 22.0091C20.6139 21.0118 21.943 19.4509 22.6431 17.5824H14.8652V11.8281H22.7565H28.8368Z" fill="#518EF8"/>
<path d="M23.6508 25.8877L23.6516 25.8885C21.1589 27.8921 17.9924 29.0909 14.5455 29.0909C9.00625 29.0909 4.19028 25.9949 1.73352 21.4386L6.44721 17.5801C7.67556 20.8584 10.838 23.1921 14.5455 23.1921C16.1391 23.1921 17.632 22.7613 18.9131 22.0092L23.6508 25.8877Z" fill="#28B446"/>
<path d="M23.8299 3.34864L19.1178 7.20636C17.7919 6.37761 16.2246 5.89886 14.5456 5.89886C10.7541 5.89886 7.53255 8.3396 6.36573 11.7355L1.62726 7.85614H1.62646C4.04726 3.18881 8.92397 0 14.5456 0C18.0748 0 21.3108 1.25716 23.8299 3.34864Z" fill="#F14336"/>
</svg>
