<svg width="24" height="24" viewBox="0 0 24 24" fill="none" xmlns="http://www.w3.org/2000/svg">
<path d="M14.9938 20.9914V12.9947C14.9938 12.7296 14.8885 12.4753 14.701 12.2879C14.5135 12.1004 14.2593 11.9951 13.9942 11.9951H9.99586C9.73075 11.9951 9.47651 12.1004 9.28905 12.2879C9.10159 12.4753 8.99628 12.7296 8.99628 12.9947V20.9914" stroke="#5592FB" stroke-width="1.99917" stroke-linecap="round" stroke-linejoin="round"/>
<path d="M2.99878 9.99566C2.99871 9.70485 3.06209 9.41752 3.18449 9.15373C3.30689 8.88993 3.48537 8.65602 3.70748 8.4683L10.7046 2.47179C11.0654 2.16683 11.5226 1.99951 11.995 1.99951C12.4675 1.99951 12.9247 2.16683 13.2855 2.47179L20.2826 8.4683C20.5047 8.65602 20.6832 8.88993 20.8056 9.15373C20.928 9.41752 20.9914 9.70485 20.9913 9.99566V18.9919C20.9913 19.5221 20.7807 20.0306 20.4057 20.4055C20.0308 20.7805 19.5223 20.9911 18.9921 20.9911H4.99795C4.46773 20.9911 3.95924 20.7805 3.58432 20.4055C3.20941 20.0306 2.99878 19.5221 2.99878 18.9919V9.99566Z" stroke="#5592FB" stroke-width="1.99917" stroke-linecap="round" stroke-linejoin="round"/>
</svg>
