<svg width="24" height="24" viewBox="0 0 24 24" fill="none" xmlns="http://www.w3.org/2000/svg">
<path d="M14.9938 1.99902H5.99752C5.46731 1.99902 4.95881 2.20965 4.58389 2.58457C4.20898 2.95948 3.99835 3.46798 3.99835 3.99819V19.9915C3.99835 20.5217 4.20898 21.0302 4.58389 21.4052C4.95881 21.7801 5.46731 21.9907 5.99752 21.9907H17.9925C18.5227 21.9907 19.0312 21.7801 19.4061 21.4052C19.7811 21.0302 19.9917 20.5217 19.9917 19.9915V6.99694L14.9938 1.99902Z" stroke="#7F8186" stroke-width="1.99917" stroke-linecap="round" stroke-linejoin="round"/>
<path d="M13.9941 1.99902V5.99736C13.9941 6.52757 14.2048 7.03607 14.5797 7.41098C14.9546 7.7859 15.4631 7.99653 15.9933 7.99653H19.9916" stroke="#7F8186" stroke-width="1.99917" stroke-linecap="round" stroke-linejoin="round"/>
<path d="M9.99664 8.99609H7.99664" stroke="#7F8186" stroke-width="1.99917" stroke-linecap="round" stroke-linejoin="round"/>
<path d="M15.9933 12.9946H7.99664" stroke="#7F8186" stroke-width="1.99917" stroke-linecap="round" stroke-linejoin="round"/>
<path d="M15.9933 16.9932H7.99664" stroke="#7F8186" stroke-width="1.99917" stroke-linecap="round" stroke-linejoin="round"/>
</svg>
