<svg width="16" height="16" viewBox="0 0 16 16" fill="none" xmlns="http://www.w3.org/2000/svg">
<g clip-path="url(#clip0_28_459)">
<path d="M7.6801 1.52952C7.7093 1.47052 7.75441 1.42086 7.81035 1.38613C7.86628 1.35141 7.9308 1.33301 7.99663 1.33301C8.06247 1.33301 8.12699 1.35141 8.18292 1.38613C8.23885 1.42086 8.28396 1.47052 8.31317 1.52952L9.85253 4.64756C9.95394 4.85278 10.1036 5.03034 10.2888 5.16498C10.4739 5.29962 10.6889 5.38732 10.9154 5.42057L14.358 5.92436C14.4232 5.93381 14.4845 5.96132 14.5349 6.00379C14.5853 6.04626 14.6228 6.10198 14.6432 6.16466C14.6636 6.22734 14.666 6.29447 14.6503 6.35847C14.6345 6.42246 14.6011 6.48076 14.5539 6.52677L12.0643 8.9511C11.9001 9.1111 11.7772 9.3086 11.7063 9.52661C11.6354 9.74462 11.6185 9.9766 11.6571 10.2026L12.2449 13.6278C12.2564 13.693 12.2493 13.7601 12.2245 13.8215C12.1997 13.8829 12.1582 13.9361 12.1046 13.975C12.051 14.0139 11.9876 14.037 11.9216 14.0416C11.8555 14.0462 11.7895 14.0321 11.7311 14.001L8.65369 12.383C8.45092 12.2765 8.22532 12.2209 7.9963 12.2209C7.76728 12.2209 7.54168 12.2765 7.33891 12.383L4.26219 14.001C4.20377 14.0319 4.13784 14.0458 4.0719 14.0411C4.00597 14.0365 3.94267 14.0134 3.88921 13.9745C3.83575 13.9356 3.79427 13.8825 3.7695 13.8212C3.74472 13.7599 3.73765 13.6929 3.74907 13.6278L4.33616 10.2032C4.37494 9.97716 4.35814 9.74503 4.2872 9.52689C4.21627 9.30874 4.09333 9.11113 3.92899 8.9511L1.43936 6.52744C1.39178 6.48148 1.35806 6.42308 1.34205 6.35889C1.32603 6.2947 1.32837 6.22731 1.34879 6.16438C1.36921 6.10146 1.40689 6.04553 1.45754 6.00298C1.50819 5.96043 1.56978 5.93295 1.63528 5.92369L5.07718 5.42057C5.30393 5.38758 5.51926 5.29999 5.70464 5.16533C5.89003 5.03067 6.03992 4.85298 6.14141 4.64756L7.6801 1.52952Z" fill="#FFA500" stroke="#FFA500" stroke-width="1.33278" stroke-linecap="round" stroke-linejoin="round"/>
</g>
<defs>
<clipPath id="clip0_28_459">
<rect width="15.9933" height="15.9933" fill="white"/>
</clipPath>
</defs>
</svg>
